<?xml version="1.0" encoding="UTF-8" standalone="no"?>
<!DOCTYPE svg PUBLIC "-//W3C//DTD SVG 1.1//EN"
 "http://www.w3.org/Graphics/SVG/1.1/DTD/svg11.dtd">
<!-- Generated by graphviz version 2.30.1 (20130625.1811)
 -->
<!-- Title: controllers_diagram Pages: 1 -->
<svg width="1542pt" height="1331pt"
 viewBox="0.00 0.00 1542.00 1331.00" xmlns="http://www.w3.org/2000/svg" xmlns:xlink="http://www.w3.org/1999/xlink">
<g id="graph0" class="graph" transform="scale(1 1) rotate(0) translate(4 1327)">
<title>controllers_diagram</title>
<polygon fill="white" stroke="white" points="-4,5 -4,-1327 1539,-1327 1539,5 -4,5"/>
<!-- _diagram_info -->
<g id="node1" class="node"><title>_diagram_info</title>
<text text-anchor="start" x="1336" y="-1308.6" font-family="Times,serif" font-size="13.00">Controllers diagram</text>
<text text-anchor="start" x="1336" y="-1294.6" font-family="Times,serif" font-size="13.00">Date: Jun 25 2013 &#45; 23:11</text>
<text text-anchor="start" x="1336" y="-1280.6" font-family="Times,serif" font-size="13.00">Migration version: 20130613114140</text>
<text text-anchor="start" x="1336" y="-1266.6" font-family="Times,serif" font-size="13.00">Generated by RailRoady 1.1.0</text>
<text text-anchor="start" x="1336" y="-1252.6" font-family="Times,serif" font-size="13.00">http://railroady.prestonlee.com</text>
</g>
<!-- AdminController -->
<g id="node2" class="node"><title>AdminController</title>
<ellipse fill="none" stroke="black" cx="127.635" cy="-472.749" rx="76.0865" ry="18"/>
<text text-anchor="middle" x="127.635" y="-469.049" font-family="Times,serif" font-size="14.00">AdminController</text>
</g>
<!-- ApplicationController -->
<g id="node3" class="node"><title>ApplicationController</title>
<ellipse fill="none" stroke="black" cx="715.392" cy="-621.596" rx="93.6835" ry="18"/>
<text text-anchor="middle" x="715.392" y="-617.896" font-family="Times,serif" font-size="14.00">ApplicationController</text>
</g>
<!-- ApplicationController&#45;&gt;AdminController -->
<g id="edge1" class="edge"><title>ApplicationController&#45;&gt;AdminController</title>
<path fill="none" stroke="black" d="M658.769,-607.256C544.979,-578.44 290.06,-513.883 179.943,-485.996"/>
</g>
<!-- AreaOfInterestsController -->
<g id="node4" class="node"><title>AreaOfInterestsController</title>
<ellipse fill="none" stroke="black" cx="638.621" cy="-18" rx="108.581" ry="18"/>
<text text-anchor="middle" x="638.621" y="-14.3" font-family="Times,serif" font-size="14.00">AreaOfInterestsController</text>
</g>
<!-- ApplicationController&#45;&gt;AreaOfInterestsController -->
<g id="edge2" class="edge"><title>ApplicationController&#45;&gt;AreaOfInterestsController</title>
<path fill="none" stroke="black" d="M713.094,-603.532C701.805,-514.772 652.301,-125.553 640.948,-36.2888"/>
</g>
<!-- AuthorsController -->
<g id="node5" class="node"><title>AuthorsController</title>
<ellipse fill="none" stroke="black" cx="393.881" cy="-1158.67" rx="80.6858" ry="18"/>
<text text-anchor="middle" x="393.881" y="-1154.97" font-family="Times,serif" font-size="14.00">AuthorsController</text>
</g>
<!-- ApplicationController&#45;&gt;AuthorsController -->
<g id="edge3" class="edge"><title>ApplicationController&#45;&gt;AuthorsController</title>
<path fill="none" stroke="black" d="M710.85,-639.704C695.169,-699.598 638.733,-894.896 539.154,-1025.22 502.765,-1072.84 448.24,-1117.71 417.379,-1141.34"/>
</g>
<!-- DocumentsController -->
<g id="node6" class="node"><title>DocumentsController</title>
<ellipse fill="none" stroke="black" cx="1089.13" cy="-600.785" rx="92.0841" ry="18"/>
<text text-anchor="middle" x="1089.13" y="-597.085" font-family="Times,serif" font-size="14.00">DocumentsController</text>
</g>
<!-- ApplicationController&#45;&gt;DocumentsController -->
<g id="edge4" class="edge"><title>ApplicationController&#45;&gt;DocumentsController</title>
<path fill="none" stroke="black" d="M805.386,-616.585C864.46,-613.295 941.387,-609.012 1000.24,-605.734"/>
</g>
<!-- EventDocumentsController -->
<g id="node7" class="node"><title>EventDocumentsController</title>
<ellipse fill="none" stroke="black" cx="294.702" cy="-669.566" rx="113.98" ry="18"/>
<text text-anchor="middle" x="294.702" y="-665.866" font-family="Times,serif" font-size="14.00">EventDocumentsController</text>
</g>
<!-- ApplicationController&#45;&gt;EventDocumentsController -->
<g id="edge5" class="edge"><title>ApplicationController&#45;&gt;EventDocumentsController</title>
<path fill="none" stroke="black" d="M634.776,-630.788C564.037,-638.855 461.181,-650.583 387.129,-659.027"/>
</g>
<!-- EventGroupsController -->
<g id="node8" class="node"><title>EventGroupsController</title>
<ellipse fill="none" stroke="black" cx="243.076" cy="-249.449" rx="99.3824" ry="18"/>
<text text-anchor="middle" x="243.076" y="-245.749" font-family="Times,serif" font-size="14.00">EventGroupsController</text>
</g>
<!-- ApplicationController&#45;&gt;EventGroupsController -->
<g id="edge6" class="edge"><title>ApplicationController&#45;&gt;EventGroupsController</title>
<path fill="none" stroke="black" d="M697.739,-603.892C673.088,-579.468 626.594,-534.473 584.119,-499.338 471.283,-406.001 327.196,-306.38 269.091,-266.953"/>
</g>
<!-- EventsController -->
<g id="node9" class="node"><title>EventsController</title>
<ellipse fill="none" stroke="black" cx="1208.91" cy="-358.011" rx="74.9875" ry="18"/>
<text text-anchor="middle" x="1208.91" y="-354.311" font-family="Times,serif" font-size="14.00">EventsController</text>
</g>
<!-- ApplicationController&#45;&gt;EventsController -->
<g id="edge7" class="edge"><title>ApplicationController&#45;&gt;EventsController</title>
<path fill="none" stroke="black" d="M747.393,-604.505C836.996,-556.648 1089.59,-421.739 1177.94,-374.555"/>
</g>
<!-- FeedbacksController -->
<g id="node10" class="node"><title>FeedbacksController</title>
<ellipse fill="none" stroke="black" cx="561.268" cy="-134.09" rx="89.0842" ry="18"/>
<text text-anchor="middle" x="561.268" y="-130.39" font-family="Times,serif" font-size="14.00">FeedbacksController</text>
</g>
<!-- ApplicationController&#45;&gt;FeedbacksController -->
<g id="edge8" class="edge"><title>ApplicationController&#45;&gt;FeedbacksController</title>
<path fill="none" stroke="black" d="M709.631,-603.375C685.313,-526.454 591.192,-228.743 566.975,-152.143"/>
</g>
<!-- GroupAreasController -->
<g id="node11" class="node"><title>GroupAreasController</title>
<ellipse fill="none" stroke="black" cx="1004.48" cy="-126.835" rx="96.3833" ry="18"/>
<text text-anchor="middle" x="1004.48" y="-123.135" font-family="Times,serif" font-size="14.00">GroupAreasController</text>
</g>
<!-- ApplicationController&#45;&gt;GroupAreasController -->
<g id="edge9" class="edge"><title>ApplicationController&#45;&gt;GroupAreasController</title>
<path fill="none" stroke="black" d="M736.712,-603.941C778.857,-567.721 872.59,-480.351 917.04,-384.939 926.955,-363.655 919.62,-355.495 925.783,-332.838 945.227,-261.354 980.237,-180.239 996.173,-144.894"/>
</g>
<!-- InfosController -->
<g id="node12" class="node"><title>InfosController</title>
<ellipse fill="none" stroke="black" cx="758.972" cy="-165.814" rx="68.7879" ry="18"/>
<text text-anchor="middle" x="758.972" y="-162.114" font-family="Times,serif" font-size="14.00">InfosController</text>
</g>
<!-- ApplicationController&#45;&gt;InfosController -->
<g id="edge10" class="edge"><title>ApplicationController&#45;&gt;InfosController</title>
<path fill="none" stroke="black" d="M715.812,-603.415C716.85,-563.645 720.051,-465.97 727.966,-384.547 735.239,-309.726 749.55,-221.257 755.859,-183.897"/>
</g>
<!-- LocationsController -->
<g id="node13" class="node"><title>LocationsController</title>
<ellipse fill="none" stroke="black" cx="86.4423" cy="-647.933" rx="86.3847" ry="18"/>
<text text-anchor="middle" x="86.4423" y="-644.233" font-family="Times,serif" font-size="14.00">LocationsController</text>
</g>
<!-- ApplicationController&#45;&gt;LocationsController -->
<g id="edge11" class="edge"><title>ApplicationController&#45;&gt;LocationsController</title>
<path fill="none" stroke="black" d="M623.937,-625.426C502.478,-630.512 289.573,-639.427 171.453,-644.374"/>
</g>
<!-- MapsVersionsController -->
<g id="node14" class="node"><title>MapsVersionsController</title>
<ellipse fill="none" stroke="black" cx="1293.04" cy="-638.17" rx="102.882" ry="18"/>
<text text-anchor="middle" x="1293.04" y="-634.47" font-family="Times,serif" font-size="14.00">MapsVersionsController</text>
</g>
<!-- ApplicationController&#45;&gt;MapsVersionsController -->
<g id="edge12" class="edge"><title>ApplicationController&#45;&gt;MapsVersionsController</title>
<path fill="none" stroke="black" d="M808.201,-624.259C912.966,-627.265 1082.88,-632.14 1191.22,-635.248"/>
</g>
<!-- MessagesController -->
<g id="node15" class="node"><title>MessagesController</title>
<ellipse fill="none" stroke="black" cx="1256.75" cy="-777.941" rx="85.2851" ry="18"/>
<text text-anchor="middle" x="1256.75" y="-774.241" font-family="Times,serif" font-size="14.00">MessagesController</text>
</g>
<!-- ApplicationController&#45;&gt;MessagesController -->
<g id="edge13" class="edge"><title>ApplicationController&#45;&gt;MessagesController</title>
<path fill="none" stroke="black" d="M767.3,-636.587C871.172,-666.586 1103.43,-733.661 1206.18,-763.338"/>
</g>
<!-- NetworkingsController -->
<g id="node16" class="node"><title>NetworkingsController</title>
<ellipse fill="none" stroke="black" cx="855.924" cy="-1212.71" rx="98.5829" ry="18"/>
<text text-anchor="middle" x="855.924" y="-1209.01" font-family="Times,serif" font-size="14.00">NetworkingsController</text>
</g>
<!-- ApplicationController&#45;&gt;NetworkingsController -->
<g id="edge14" class="edge"><title>ApplicationController&#45;&gt;NetworkingsController</title>
<path fill="none" stroke="black" d="M722.726,-639.672C749.226,-705.638 838.406,-933.564 837.304,-1010.72 836.606,-1059.62 797.134,-1066.03 801.421,-1114.75 804.151,-1145.77 824.759,-1176.28 839.831,-1194.8"/>
</g>
<!-- NotesController -->
<g id="node17" class="node"><title>NotesController</title>
<ellipse fill="none" stroke="black" cx="998.875" cy="-332.964" rx="71.4873" ry="18"/>
<text text-anchor="middle" x="998.875" y="-329.264" font-family="Times,serif" font-size="14.00">NotesController</text>
</g>
<!-- ApplicationController&#45;&gt;NotesController -->
<g id="edge15" class="edge"><title>ApplicationController&#45;&gt;NotesController</title>
<path fill="none" stroke="black" d="M733.125,-603.541C784.156,-551.583 930.944,-402.129 981.51,-350.644"/>
</g>
<!-- OrgNotificationsController -->
<g id="node18" class="node"><title>OrgNotificationsController</title>
<ellipse fill="none" stroke="black" cx="1143.41" cy="-214.542" rx="112.38" ry="18"/>
<text text-anchor="middle" x="1143.41" y="-210.842" font-family="Times,serif" font-size="14.00">OrgNotificationsController</text>
</g>
<!-- ApplicationController&#45;&gt;OrgNotificationsController -->
<g id="edge16" class="edge"><title>ApplicationController&#45;&gt;OrgNotificationsController</title>
<path fill="none" stroke="black" d="M743.141,-604.082C806.984,-562.812 966.855,-453.797 1071.97,-333.091 1099.74,-301.196 1123.09,-257.124 1134.98,-232.693"/>
</g>
<!-- PendingContactsController -->
<g id="node19" class="node"><title>PendingContactsController</title>
<ellipse fill="none" stroke="black" cx="230.546" cy="-1045.05" rx="113.18" ry="18"/>
<text text-anchor="middle" x="230.546" y="-1041.35" font-family="Times,serif" font-size="14.00">PendingContactsController</text>
</g>
<!-- ApplicationController&#45;&gt;PendingContactsController -->
<g id="edge17" class="edge"><title>ApplicationController&#45;&gt;PendingContactsController</title>
<path fill="none" stroke="black" d="M674.212,-637.811C607.89,-666.29 478.749,-732.013 418.266,-832.824 406.546,-852.359 422.355,-863.514 411.723,-883.662 376.73,-949.977 302.808,-1002.1 261.01,-1027.7"/>
</g>
<!-- PeopleController -->
<g id="node20" class="node"><title>PeopleController</title>
<ellipse fill="none" stroke="black" cx="135.661" cy="-839.547" rx="75.2868" ry="18"/>
<text text-anchor="middle" x="135.661" y="-835.847" font-family="Times,serif" font-size="14.00">PeopleController</text>
</g>
<!-- ApplicationController&#45;&gt;PeopleController -->
<g id="edge18" class="edge"><title>ApplicationController&#45;&gt;PeopleController</title>
<path fill="none" stroke="black" d="M672.763,-637.623C564.899,-678.174 282.21,-784.452 176.41,-824.227"/>
</g>
<!-- PersonInterestsController -->
<g id="node21" class="node"><title>PersonInterestsController</title>
<ellipse fill="none" stroke="black" cx="303.534" cy="-883.566" rx="106.681" ry="18"/>
<text text-anchor="middle" x="303.534" y="-879.866" font-family="Times,serif" font-size="14.00">PersonInterestsController</text>
</g>
<!-- ApplicationController&#45;&gt;PersonInterestsController -->
<g id="edge19" class="edge"><title>ApplicationController&#45;&gt;PersonInterestsController</title>
<path fill="none" stroke="black" d="M688.05,-638.988C613.311,-686.527 406.182,-818.275 331.136,-866.009"/>
</g>
<!-- ProgramVersionsController -->
<g id="node22" class="node"><title>ProgramVersionsController</title>
<ellipse fill="none" stroke="black" cx="466.834" cy="-499.159" rx="115.88" ry="18"/>
<text text-anchor="middle" x="466.834" y="-495.459" font-family="Times,serif" font-size="14.00">ProgramVersionsController</text>
</g>
<!-- ApplicationController&#45;&gt;ProgramVersionsController -->
<g id="edge20" class="edge"><title>ApplicationController&#45;&gt;ProgramVersionsController</title>
<path fill="none" stroke="black" d="M681.352,-604.828C634.285,-581.644 549.754,-540.005 502.065,-516.513"/>
</g>
<!-- RejectedContactsController -->
<g id="node24" class="node"><title>RejectedContactsController</title>
<ellipse fill="none" stroke="black" cx="254.93" cy="-406.777" rx="113.98" ry="18"/>
<text text-anchor="middle" x="254.93" y="-403.077" font-family="Times,serif" font-size="14.00">RejectedContactsController</text>
</g>
<!-- ApplicationController&#45;&gt;RejectedContactsController -->
<g id="edge21" class="edge"><title>ApplicationController&#45;&gt;RejectedContactsController</title>
<path fill="none" stroke="black" d="M645.965,-609.47C568.667,-593.55 442.408,-560.154 349.549,-498.98 317.563,-477.907 287.043,-445.091 269.689,-424.82"/>
</g>
<!-- RemovedEventsController -->
<g id="node25" class="node"><title>RemovedEventsController</title>
<ellipse fill="none" stroke="black" cx="913.507" cy="-1114.91" rx="110.48" ry="18"/>
<text text-anchor="middle" x="913.507" y="-1111.21" font-family="Times,serif" font-size="14.00">RemovedEventsController</text>
</g>
<!-- ApplicationController&#45;&gt;RemovedEventsController -->
<g id="edge22" class="edge"><title>ApplicationController&#45;&gt;RemovedEventsController</title>
<path fill="none" stroke="black" d="M722.678,-639.738C753.778,-717.179 875.234,-1019.61 906.26,-1096.86"/>
</g>
<!-- RemovedNotesController -->
<g id="node26" class="node"><title>RemovedNotesController</title>
<ellipse fill="none" stroke="black" cx="1138.68" cy="-1111.58" rx="106.681" ry="18"/>
<text text-anchor="middle" x="1138.68" y="-1107.88" font-family="Times,serif" font-size="14.00">RemovedNotesController</text>
</g>
<!-- ApplicationController&#45;&gt;RemovedNotesController -->
<g id="edge23" class="edge"><title>ApplicationController&#45;&gt;RemovedNotesController</title>
<path fill="none" stroke="black" d="M720.49,-639.845C731.185,-675.975 758.542,-758.115 800.971,-815.909 893.661,-942.169 1048.99,-1052.43 1111.45,-1093.98"/>
</g>
<!-- RemovedNotificationsController -->
<g id="node27" class="node"><title>RemovedNotificationsController</title>
<ellipse fill="none" stroke="black" cx="615.804" cy="-1191.83" rx="133.477" ry="18"/>
<text text-anchor="middle" x="615.804" y="-1188.13" font-family="Times,serif" font-size="14.00">RemovedNotificationsController</text>
</g>
<!-- ApplicationController&#45;&gt;RemovedNotificationsController -->
<g id="edge24" class="edge"><title>ApplicationController&#45;&gt;RemovedNotificationsController</title>
<path fill="none" stroke="black" d="M712.247,-639.604C697.336,-724.985 633.863,-1088.43 618.95,-1173.82"/>
</g>
<!-- SingupController -->
<g id="node28" class="node"><title>SingupController</title>
<ellipse fill="none" stroke="black" cx="860.606" cy="-43.6121" rx="77.1866" ry="18"/>
<text text-anchor="middle" x="860.606" y="-39.9121" font-family="Times,serif" font-size="14.00">SingupController</text>
</g>
<!-- ApplicationController&#45;&gt;SingupController -->
<g id="edge25" class="edge"><title>ApplicationController&#45;&gt;SingupController</title>
<path fill="none" stroke="black" d="M714.04,-603.411C711.553,-563.229 708.171,-464.135 727.966,-384.547 753.828,-280.562 793.531,-266.807 829.466,-165.859 842.319,-129.751 852.151,-85.8835 857.087,-61.7384"/>
</g>
<!-- SpeakersController -->
<g id="node29" class="node"><title>SpeakersController</title>
<ellipse fill="none" stroke="black" cx="1259.99" cy="-940.226" rx="83.3857" ry="18"/>
<text text-anchor="middle" x="1259.99" y="-936.526" font-family="Times,serif" font-size="14.00">SpeakersController</text>
</g>
<!-- ApplicationController&#45;&gt;SpeakersController -->
<g id="edge26" class="edge"><title>ApplicationController&#45;&gt;SpeakersController</title>
<path fill="none" stroke="black" d="M744.672,-638.727C839.343,-694.116 1136.5,-867.971 1230.9,-923.204"/>
</g>
<!-- TradedContactsController -->
<g id="node30" class="node"><title>TradedContactsController</title>
<ellipse fill="none" stroke="black" cx="528.406" cy="-832.9" rx="108.581" ry="18"/>
<text text-anchor="middle" x="528.406" y="-829.2" font-family="Times,serif" font-size="14.00">TradedContactsController</text>
</g>
<!-- ApplicationController&#45;&gt;TradedContactsController -->
<g id="edge27" class="edge"><title>ApplicationController&#45;&gt;TradedContactsController</title>
<path fill="none" stroke="black" d="M699.45,-639.612C664.123,-679.533 579.597,-775.051 544.308,-814.93"/>
</g>
<!-- UpdateController -->
<g id="node31" class="node"><title>UpdateController</title>
<ellipse fill="none" stroke="black" cx="455.852" cy="-274.021" rx="76.8869" ry="18"/>
<text text-anchor="middle" x="455.852" y="-270.321" font-family="Times,serif" font-size="14.00">UpdateController</text>
</g>
<!-- ApplicationController&#45;&gt;UpdateController -->
<g id="edge28" class="edge"><title>ApplicationController&#45;&gt;UpdateController</title>
<path fill="none" stroke="black" d="M701.803,-603.398C656.954,-543.336 513.959,-351.837 469.306,-292.039"/>
</g>
<!-- UserContactsController -->
<g id="node32" class="node"><title>UserContactsController</title>
<ellipse fill="none" stroke="black" cx="1266.68" cy="-485.35" rx="99.3824" ry="18"/>
<text text-anchor="middle" x="1266.68" y="-481.65" font-family="Times,serif" font-size="14.00">UserContactsController</text>
</g>
<!-- ApplicationController&#45;&gt;UserContactsController -->
<g id="edge29" class="edge"><title>ApplicationController&#45;&gt;UserContactsController</title>
<path fill="none" stroke="black" d="M773.088,-607.337C878.563,-581.27 1101.41,-526.195 1207.77,-499.908"/>
</g>
<!-- UserController -->
<g id="node33" class="node"><title>UserController</title>
<ellipse fill="none" stroke="black" cx="768.114" cy="-1010.53" rx="67.6881" ry="18"/>
<text text-anchor="middle" x="768.114" y="-1006.83" font-family="Times,serif" font-size="14.00">UserController</text>
</g>
<!-- ApplicationController&#45;&gt;UserController -->
<g id="edge30" class="edge"><title>ApplicationController&#45;&gt;UserController</title>
<path fill="none" stroke="black" d="M717.864,-639.834C726.72,-705.164 756.8,-927.069 765.647,-992.336"/>
</g>
<!-- UserNetworkingController -->
<g id="node34" class="node"><title>UserNetworkingController</title>
<ellipse fill="none" stroke="black" cx="915.658" cy="-816.037" rx="113.18" ry="18"/>
<text text-anchor="middle" x="915.658" y="-812.337" font-family="Times,serif" font-size="14.00">UserNetworkingController</text>
</g>
<!-- ApplicationController&#45;&gt;UserNetworkingController -->
<g id="edge31" class="edge"><title>ApplicationController&#45;&gt;UserNetworkingController</title>
<path fill="none" stroke="black" d="M733.873,-639.54C772.025,-676.582 859.108,-761.132 897.221,-798.136"/>
</g>
<!-- UserNotesController -->
<g id="node35" class="node"><title>UserNotesController</title>
<ellipse fill="none" stroke="black" cx="375.184" cy="-118.379" rx="89.0842" ry="18"/>
<text text-anchor="middle" x="375.184" y="-114.679" font-family="Times,serif" font-size="14.00">UserNotesController</text>
</g>
<!-- ApplicationController&#45;&gt;UserNotesController -->
<g id="edge32" class="edge"><title>ApplicationController&#45;&gt;UserNotesController</title>
<path fill="none" stroke="black" d="M708.339,-603.465C687.027,-549.93 619.489,-389.101 534.145,-274.059 492.373,-217.752 429.929,-163.033 397.122,-135.953"/>
</g>
<!-- UserProfileController -->
<g id="node36" class="node"><title>UserProfileController</title>
<ellipse fill="none" stroke="black" cx="444.616" cy="-1025.02" rx="92.8835" ry="18"/>
<text text-anchor="middle" x="444.616" y="-1021.32" font-family="Times,serif" font-size="14.00">UserProfileController</text>
</g>
<!-- ApplicationController&#45;&gt;UserProfileController -->
<g id="edge33" class="edge"><title>ApplicationController&#45;&gt;UserProfileController</title>
<path fill="none" stroke="black" d="M711.637,-639.781C703.171,-677.94 680.022,-768.192 638.545,-832.976 590.513,-907.998 508.441,-976.404 468.229,-1007.45"/>
</g>
<!-- UserProgramController -->
<g id="node37" class="node"><title>UserProgramController</title>
<ellipse fill="none" stroke="black" cx="1067.96" cy="-918.952" rx="100.983" ry="18"/>
<text text-anchor="middle" x="1067.96" y="-915.252" font-family="Times,serif" font-size="14.00">UserProgramController</text>
</g>
<!-- ApplicationController&#45;&gt;UserProgramController -->
<g id="edge34" class="edge"><title>ApplicationController&#45;&gt;UserProgramController</title>
<path fill="none" stroke="black" d="M758.932,-637.581C826.305,-664.426 955.81,-724.764 1030.35,-816.164 1050.88,-841.347 1060.77,-878.749 1065.07,-900.81"/>
</g>
<!-- UserSearchController -->
<g id="node38" class="node"><title>UserSearchController</title>
<ellipse fill="none" stroke="black" cx="822.503" cy="-384.743" rx="92.8835" ry="18"/>
<text text-anchor="middle" x="822.503" y="-381.043" font-family="Times,serif" font-size="14.00">UserSearchController</text>
</g>
<!-- ApplicationController&#45;&gt;UserSearchController -->
<g id="edge35" class="edge"><title>ApplicationController&#45;&gt;UserSearchController</title>
<path fill="none" stroke="black" d="M723.619,-603.404C743.557,-559.316 794.281,-447.149 814.248,-402.997"/>
</g>
<!-- RegistrationsController -->
<g id="node23" class="node"><title>RegistrationsController</title>
<ellipse fill="none" stroke="black" cx="1343.79" cy="-101" rx="98.5829" ry="18"/>
<text text-anchor="middle" x="1343.79" y="-97.3" font-family="Times,serif" font-size="14.00">RegistrationsController</text>
</g>
</g>
</svg>
