<?xml version="1.0" encoding="UTF-8" standalone="no"?>
<!DOCTYPE svg PUBLIC "-//W3C//DTD SVG 1.1//EN"
 "http://www.w3.org/Graphics/SVG/1.1/DTD/svg11.dtd">
<!-- Generated by graphviz version 2.30.1 (20130625.1811)
 -->
<!-- Title: models_diagram Pages: 1 -->
<svg width="3996pt" height="484pt"
 viewBox="0.00 0.00 3996.00 484.00" xmlns="http://www.w3.org/2000/svg" xmlns:xlink="http://www.w3.org/1999/xlink">
<g id="graph0" class="graph" transform="scale(1 1) rotate(0) translate(4 480)">
<title>models_diagram</title>
<polygon fill="white" stroke="white" points="-4,5 -4,-480 3993,-480 3993,5 -4,5"/>
<!-- _diagram_info -->
<g id="node1" class="node"><title>_diagram_info</title>
<text text-anchor="start" x="840" y="-461.6" font-family="Times,serif" font-size="13.00">Models diagram</text>
<text text-anchor="start" x="840" y="-447.6" font-family="Times,serif" font-size="13.00">Date: Jun 25 2013 &#45; 23:11</text>
<text text-anchor="start" x="840" y="-433.6" font-family="Times,serif" font-size="13.00">Migration version: 20130613114140</text>
<text text-anchor="start" x="840" y="-419.6" font-family="Times,serif" font-size="13.00">Generated by RailRoady 1.1.0</text>
<text text-anchor="start" x="840" y="-405.6" font-family="Times,serif" font-size="13.00">http://railroady.prestonlee.com</text>
</g>
<!-- AboutEvent -->
<g id="node2" class="node"><title>AboutEvent</title>
<ellipse fill="none" stroke="black" cx="241" cy="-18" rx="55.3436" ry="18"/>
<text text-anchor="middle" x="241" y="-14.3" font-family="Times,serif" font-size="14.00">AboutEvent</text>
</g>
<!-- AboutPerson -->
<g id="node3" class="node"><title>AboutPerson</title>
<ellipse fill="none" stroke="black" cx="375" cy="-18" rx="60.1672" ry="18"/>
<text text-anchor="middle" x="375" y="-14.3" font-family="Times,serif" font-size="14.00">AboutPerson</text>
</g>
<!-- Administrator -->
<g id="node4" class="node"><title>Administrator</title>
<ellipse fill="none" stroke="black" cx="2075" cy="-437" rx="63.5411" ry="18"/>
<text text-anchor="middle" x="2075" y="-433.3" font-family="Times,serif" font-size="14.00">Administrator</text>
</g>
<!-- AreaOfInterest -->
<g id="node5" class="node"><title>AreaOfInterest</title>
<ellipse fill="none" stroke="black" cx="1122" cy="-437" rx="65.4659" ry="18"/>
<text text-anchor="middle" x="1122" y="-433.3" font-family="Times,serif" font-size="14.00">AreaOfInterest</text>
</g>
<!-- GroupArea -->
<g id="node13" class="node"><title>GroupArea</title>
<ellipse fill="none" stroke="black" cx="1904" cy="-268" rx="53.4184" ry="18"/>
<text text-anchor="middle" x="1904" y="-264.3" font-family="Times,serif" font-size="14.00">GroupArea</text>
</g>
<!-- AreaOfInterest&#45;&gt;GroupArea -->
<g id="edge1" class="edge"><title>AreaOfInterest&#45;&gt;GroupArea</title>
<path fill="none" stroke="#ee92aa" d="M1194.9,-434.573C1380.52,-430.166 1859.55,-413.652 1905,-360 1919.78,-342.548 1917.53,-315.734 1912.78,-295.727"/>
<ellipse fill="none" stroke="#ee92aa" cx="1190.82" cy="-434.668" rx="4" ry="4"/>
<polygon fill="#ee92aa" stroke="#ee92aa" points="1912.75,-295.625 1914.48,-284.797 1911.44,-290.798 1910.14,-285.971 1910.14,-285.971 1910.14,-285.971 1911.44,-290.798 1905.8,-287.144 1912.75,-295.625 1912.75,-295.625"/>
</g>
<!-- EventGroup -->
<g id="node11" class="node"><title>EventGroup</title>
<ellipse fill="none" stroke="black" cx="1839" cy="-342" rx="57.2927" ry="18"/>
<text text-anchor="middle" x="1839" y="-338.3" font-family="Times,serif" font-size="14.00">EventGroup</text>
</g>
<!-- AreaOfInterest&#45;&gt;EventGroup -->
<g id="edge2" class="edge"><title>AreaOfInterest&#45;&gt;EventGroup</title>
<path fill="none" stroke="#34ae05" d="M1196.45,-433.211C1342.74,-427.132 1662.58,-410.706 1768,-380 1781.06,-376.197 1794.51,-369.896 1806.14,-363.562"/>
<polygon fill="#34ae05" stroke="#34ae05" points="1196.22,-433.221 1186.04,-429.135 1191.22,-433.426 1186.23,-433.631 1186.23,-433.631 1186.23,-433.631 1191.22,-433.426 1186.41,-438.127 1196.22,-433.221 1196.22,-433.221"/>
<polygon fill="#34ae05" stroke="#34ae05" points="1806.33,-363.451 1817.25,-362.438 1810.68,-360.987 1815.04,-358.522 1815.04,-358.522 1815.04,-358.522 1810.68,-360.987 1812.82,-354.607 1806.33,-363.451 1806.33,-363.451"/>
</g>
<!-- NetworkingInterest -->
<g id="node19" class="node"><title>NetworkingInterest</title>
<ellipse fill="none" stroke="black" cx="83" cy="-18" rx="83.2649" ry="18"/>
<text text-anchor="middle" x="83" y="-14.3" font-family="Times,serif" font-size="14.00">NetworkingInterest</text>
</g>
<!-- AreaOfInterest&#45;&gt;NetworkingInterest -->
<g id="edge3" class="edge"><title>AreaOfInterest&#45;&gt;NetworkingInterest</title>
<path fill="none" stroke="#60ec9b" d="M1090.44,-416.06C1077.49,-408.949 1062.03,-401.77 1047,-398 960.976,-376.423 337.035,-390.756 249,-380 174.4,-370.886 84,-418.154 84,-343 84,-343 84,-343 84,-91 84,-76.2037 83.7862,-59.6985 83.5564,-46.2276"/>
<ellipse fill="none" stroke="#60ec9b" cx="1094.28" cy="-418.238" rx="4.00002" ry="4.00002"/>
<polygon fill="#60ec9b" stroke="#60ec9b" points="83.5553,-46.1636 87.8716,-36.083 83.4638,-41.1644 83.3724,-36.1653 83.3724,-36.1653 83.3724,-36.1653 83.4638,-41.1644 78.8731,-36.2476 83.5553,-46.1636 83.5553,-46.1636"/>
</g>
<!-- Networking -->
<g id="node18" class="node"><title>Networking</title>
<ellipse fill="none" stroke="black" cx="227" cy="-92" rx="56.3173" ry="18"/>
<text text-anchor="middle" x="227" y="-88.3" font-family="Times,serif" font-size="14.00">Networking</text>
</g>
<!-- AreaOfInterest&#45;&gt;Networking -->
<g id="edge4" class="edge"><title>AreaOfInterest&#45;&gt;Networking</title>
<path fill="none" stroke="#17d04e" d="M1088.6,-415.428C1076.01,-408.672 1061.28,-401.9 1047,-398 955.383,-372.972 194,-437.975 194,-343 194,-343 194,-343 194,-179 194,-157.744 202.896,-135.378 211.45,-118.784"/>
<polygon fill="#17d04e" stroke="#17d04e" points="1088.61,-415.436 1095.16,-424.235 1092.98,-417.87 1097.35,-420.304 1097.35,-420.304 1097.35,-420.304 1092.98,-417.87 1099.54,-416.373 1088.61,-415.436 1088.61,-415.436"/>
<polygon fill="#17d04e" stroke="#17d04e" points="211.596,-118.515 220.329,-111.884 213.986,-114.124 216.377,-109.733 216.377,-109.733 216.377,-109.733 213.986,-114.124 212.425,-107.581 211.596,-118.515 211.596,-118.515"/>
</g>
<!-- PersonInterest -->
<g id="node24" class="node"><title>PersonInterest</title>
<ellipse fill="none" stroke="black" cx="1918" cy="-92" rx="63.5411" ry="18"/>
<text text-anchor="middle" x="1918" y="-88.3" font-family="Times,serif" font-size="14.00">PersonInterest</text>
</g>
<!-- AreaOfInterest&#45;&gt;PersonInterest -->
<g id="edge5" class="edge"><title>AreaOfInterest&#45;&gt;PersonInterest</title>
<path fill="none" stroke="#6d52f0" d="M1188.8,-427.803C1338.14,-408.412 1693.54,-356.044 1790,-286 1850.09,-242.367 1890.1,-161.236 1907.73,-119.424"/>
<ellipse fill="none" stroke="#6d52f0" cx="1184.52" cy="-428.355" rx="4.00001" ry="4.00001"/>
<polygon fill="#6d52f0" stroke="#6d52f0" points="1907.73,-119.415 1915.69,-111.877 1909.63,-114.79 1911.53,-110.166 1911.53,-110.166 1911.53,-110.166 1909.63,-114.79 1907.37,-108.455 1907.73,-119.415 1907.73,-119.415"/>
</g>
<!-- Person -->
<g id="node23" class="node"><title>Person</title>
<ellipse fill="none" stroke="black" cx="1181" cy="-180" rx="36.096" ry="18"/>
<text text-anchor="middle" x="1181" y="-176.3" font-family="Times,serif" font-size="14.00">Person</text>
</g>
<!-- AreaOfInterest&#45;&gt;Person -->
<g id="edge6" class="edge"><title>AreaOfInterest&#45;&gt;Person</title>
<path fill="none" stroke="#efc384" d="M1128.27,-408.918C1139.62,-359.858 1163.45,-256.839 1174.77,-207.908"/>
<polygon fill="#efc384" stroke="#efc384" points="1128.22,-409.13 1121.58,-417.858 1127.09,-414.001 1125.96,-418.873 1125.96,-418.873 1125.96,-418.873 1127.09,-414.001 1130.35,-419.887 1128.22,-409.13 1128.22,-409.13"/>
<polygon fill="#efc384" stroke="#efc384" points="1174.8,-207.795 1181.44,-199.067 1175.93,-202.924 1177.05,-198.053 1177.05,-198.053 1177.05,-198.053 1175.93,-202.924 1172.67,-197.038 1174.8,-207.795 1174.8,-207.795"/>
</g>
<!-- AtendingEvent -->
<g id="node6" class="node"><title>AtendingEvent</title>
<ellipse fill="none" stroke="black" cx="1256" cy="-92" rx="67.3907" ry="18"/>
<text text-anchor="middle" x="1256" y="-88.3" font-family="Times,serif" font-size="14.00">AtendingEvent</text>
</g>
<!-- Author -->
<g id="node7" class="node"><title>Author</title>
<ellipse fill="none" stroke="black" cx="1698" cy="-92" rx="38.0212" ry="18"/>
<text text-anchor="middle" x="1698" y="-88.3" font-family="Times,serif" font-size="14.00">Author</text>
</g>
<!-- EventDocument -->
<g id="node10" class="node"><title>EventDocument</title>
<ellipse fill="none" stroke="black" cx="1698" cy="-18" rx="71.2405" ry="18"/>
<text text-anchor="middle" x="1698" y="-14.3" font-family="Times,serif" font-size="14.00">EventDocument</text>
</g>
<!-- Author&#45;&gt;EventDocument -->
<g id="edge7" class="edge"><title>Author&#45;&gt;EventDocument</title>
<path fill="none" stroke="#0f2c29" d="M1698,-63.7193C1698,-58.1452 1698,-52.2742 1698,-46.686"/>
<polygon fill="#0f2c29" stroke="#0f2c29" points="1698,-63.937 1693.5,-73.937 1698,-68.937 1698,-73.937 1698,-73.937 1698,-73.937 1698,-68.937 1702.5,-73.937 1698,-63.937 1698,-63.937"/>
<polygon fill="#0f2c29" stroke="#0f2c29" points="1698,-46.4407 1702.5,-36.4406 1698,-41.4407 1698,-36.4407 1698,-36.4407 1698,-36.4407 1698,-41.4407 1693.5,-36.4407 1698,-46.4407 1698,-46.4407"/>
</g>
<!-- Event -->
<g id="node9" class="node"><title>Event</title>
<ellipse fill="none" stroke="black" cx="1749" cy="-268" rx="32.2457" ry="18"/>
<text text-anchor="middle" x="1749" y="-264.3" font-family="Times,serif" font-size="14.00">Event</text>
</g>
<!-- Author&#45;&gt;Event -->
<g id="edge8" class="edge"><title>Author&#45;&gt;Event</title>
<path fill="none" stroke="#d01e9e" d="M1723.72,-115.433C1726.96,-119.32 1729.87,-123.554 1732,-128 1749.12,-163.781 1751.32,-210.414 1750.67,-239.532"/>
<polygon fill="#d01e9e" stroke="#d01e9e" points="1723.59,-115.297 1720.06,-104.913 1720.18,-111.639 1716.77,-107.982 1716.77,-107.982 1716.77,-107.982 1720.18,-111.639 1713.48,-111.05 1723.59,-115.297 1723.59,-115.297"/>
<polygon fill="#d01e9e" stroke="#d01e9e" points="1750.66,-239.781 1745.81,-249.615 1750.48,-244.778 1750.3,-249.775 1750.3,-249.775 1750.3,-249.775 1750.48,-244.778 1754.8,-249.936 1750.66,-239.781 1750.66,-239.781"/>
</g>
<!-- Document -->
<g id="node8" class="node"><title>Document</title>
<ellipse fill="none" stroke="black" cx="1430" cy="-342" rx="50.0684" ry="18"/>
<text text-anchor="middle" x="1430" y="-338.3" font-family="Times,serif" font-size="14.00">Document</text>
</g>
<!-- Document&#45;&gt;Author -->
<g id="edge9" class="edge"><title>Document&#45;&gt;Author</title>
<path fill="none" stroke="#bf4779" d="M1471.2,-325.45C1534.27,-299.113 1652.55,-239.128 1701,-144 1704.69,-136.746 1705.35,-128.138 1704.68,-120.08"/>
<ellipse fill="none" stroke="#bf4779" cx="1467.49" cy="-326.974" rx="4.00002" ry="4.00002"/>
<polygon fill="#bf4779" stroke="#bf4779" points="1704.65,-119.853 1707.62,-109.298 1703.91,-114.907 1703.17,-109.962 1703.17,-109.962 1703.17,-109.962 1703.91,-114.907 1698.72,-110.627 1704.65,-119.853 1704.65,-119.853"/>
</g>
<!-- Document&#45;&gt;Person -->
<g id="edge10" class="edge"><title>Document&#45;&gt;Person</title>
<path fill="none" stroke="#52dca0" d="M1398.14,-320.527C1349.72,-289.412 1258.24,-230.634 1210.97,-200.257"/>
<polygon fill="#52dca0" stroke="#52dca0" points="1398.16,-320.542 1404.14,-329.733 1402.37,-323.245 1406.57,-325.948 1406.57,-325.948 1406.57,-325.948 1402.37,-323.245 1409.01,-322.162 1398.16,-320.542 1398.16,-320.542"/>
<polygon fill="#52dca0" stroke="#52dca0" points="1210.82,-200.159 1204.84,-190.967 1206.61,-197.456 1202.4,-194.753 1202.4,-194.753 1202.4,-194.753 1206.61,-197.456 1199.97,-198.539 1210.82,-200.159 1210.82,-200.159"/>
</g>
<!-- Document&#45;&gt;EventDocument -->
<g id="edge11" class="edge"><title>Document&#45;&gt;EventDocument</title>
<path fill="none" stroke="#d55476" d="M1374.18,-335.526C1146.86,-312.212 309.241,-215.849 445,-74 485.552,-31.6292 1345.57,-21.62 1616.81,-19.513"/>
<ellipse fill="none" stroke="#d55476" cx="1378.35" cy="-335.951" rx="4" ry="4"/>
<polygon fill="#d55476" stroke="#d55476" points="1616.98,-19.5118 1627.01,-23.9355 1621.98,-19.4737 1626.98,-19.4356 1626.98,-19.4356 1626.98,-19.4356 1621.98,-19.4737 1626.94,-14.9357 1616.98,-19.5118 1616.98,-19.5118"/>
</g>
<!-- Document&#45;&gt;Event -->
<g id="edge12" class="edge"><title>Document&#45;&gt;Event</title>
<path fill="none" stroke="#76df32" d="M1489.05,-337.192C1557.48,-332.125 1665.62,-321.91 1703,-306 1711.4,-302.422 1719.53,-296.851 1726.56,-291.108"/>
<polygon fill="#76df32" stroke="#76df32" points="1488.81,-337.209 1478.51,-333.443 1483.83,-337.57 1478.84,-337.932 1478.84,-337.932 1478.84,-337.932 1483.83,-337.57 1479.16,-342.42 1488.81,-337.209 1488.81,-337.209"/>
<polygon fill="#76df32" stroke="#76df32" points="1726.71,-290.972 1737.21,-287.787 1730.48,-287.684 1734.25,-284.397 1734.25,-284.397 1734.25,-284.397 1730.48,-287.684 1731.29,-281.006 1726.71,-290.972 1726.71,-290.972"/>
</g>
<!-- Event&#45;&gt;AboutEvent -->
<g id="edge13" class="edge"><title>Event&#45;&gt;AboutEvent</title>
<path fill="none" stroke="#768d7c" d="M1709.02,-264.249C1626.42,-258.532 1430.96,-244.83 1267,-232 800.566,-195.502 663.449,-287.065 218,-144 189.915,-134.98 175.567,-135.65 161,-110 153.099,-96.087 153.551,-88.1604 161,-74 169.187,-58.4354 183.991,-46.4215 198.657,-37.6497"/>
<ellipse fill="none" stroke="#768d7c" cx="1713.13" cy="-264.533" rx="4" ry="4"/>
<polygon fill="#768d7c" stroke="#768d7c" points="198.976,-37.4723 209.902,-36.5351 203.344,-35.0383 207.711,-32.6043 207.711,-32.6043 207.711,-32.6043 203.344,-35.0383 205.521,-28.6734 198.976,-37.4723 198.976,-37.4723"/>
</g>
<!-- Speaker -->
<g id="node37" class="node"><title>Speaker</title>
<ellipse fill="none" stroke="black" cx="1795" cy="-92" rx="40.4202" ry="18"/>
<text text-anchor="middle" x="1795" y="-88.3" font-family="Times,serif" font-size="14.00">Speaker</text>
</g>
<!-- Event&#45;&gt;Speaker -->
<g id="edge14" class="edge"><title>Event&#45;&gt;Speaker</title>
<path fill="none" stroke="#e2e675" d="M1756.99,-242.197C1758.03,-238.78 1759.06,-235.31 1760,-232 1771.17,-192.504 1782.47,-146.202 1789.1,-118.259"/>
<ellipse fill="none" stroke="#e2e675" cx="1755.76" cy="-246.15" rx="4.00001" ry="4.00001"/>
<ellipse fill="#e2e675" stroke="#e2e675" cx="1790.09" cy="-114.097" rx="4.00001" ry="4.00001"/>
</g>
<!-- Event&#45;&gt;Person -->
<g id="edge15" class="edge"><title>Event&#45;&gt;Person</title>
<path fill="none" stroke="#35a0a5" d="M1710.02,-261.451C1648.22,-251.865 1524.62,-231.718 1420,-216 1350.9,-205.618 1270.82,-194.478 1223.01,-187.623"/>
<ellipse fill="none" stroke="#35a0a5" cx="1714.01" cy="-262.067" rx="4.00001" ry="4.00001"/>
<ellipse fill="#35a0a5" stroke="#35a0a5" cx="1219.01" cy="-187.047" rx="4.00001" ry="4.00001"/>
</g>
<!-- Event&#45;&gt;EventDocument -->
<g id="edge16" class="edge"><title>Event&#45;&gt;EventDocument</title>
<path fill="none" stroke="#be380e" d="M1784.66,-256.375C1867.24,-230.035 2059.46,-157.759 1990,-74 1963.49,-42.0298 1854.81,-28.518 1777.81,-22.8925"/>
<ellipse fill="none" stroke="#be380e" cx="1780.6" cy="-257.652" rx="4.00001" ry="4.00001"/>
<polygon fill="#be380e" stroke="#be380e" points="1777.62,-22.8791 1767.95,-17.6925 1772.63,-22.5303 1767.64,-22.1815 1767.64,-22.1815 1767.64,-22.1815 1772.63,-22.5303 1767.33,-26.6706 1777.62,-22.8791 1777.62,-22.8791"/>
</g>
<!-- EventGroup&#45;&gt;Event -->
<g id="edge17" class="edge"><title>EventGroup&#45;&gt;Event</title>
<path fill="none" stroke="#3f31d6" d="M1812.51,-319.809C1800.65,-310.323 1786.72,-299.177 1774.93,-289.744"/>
<ellipse fill="none" stroke="#3f31d6" cx="1815.9" cy="-322.522" rx="4.00002" ry="4.00002"/>
<polygon fill="#3f31d6" stroke="#3f31d6" points="1774.59,-289.475 1769.6,-279.714 1770.69,-286.351 1766.78,-283.228 1766.78,-283.228 1766.78,-283.228 1770.69,-286.351 1763.97,-286.741 1774.59,-289.475 1774.59,-289.475"/>
</g>
<!-- EventGroup&#45;&gt;GroupArea -->
<g id="edge18" class="edge"><title>EventGroup&#45;&gt;GroupArea</title>
<path fill="none" stroke="#d085a1" d="M1859.49,-318.301C1866.74,-310.27 1874.92,-301.211 1882.27,-293.07"/>
<ellipse fill="none" stroke="#d085a1" cx="1856.76" cy="-321.332" rx="4.00002" ry="4.00002"/>
<polygon fill="#d085a1" stroke="#d085a1" points="1882.31,-293.031 1892.35,-288.624 1885.66,-289.32 1889.01,-285.609 1889.01,-285.609 1889.01,-285.609 1885.66,-289.32 1885.67,-282.593 1882.31,-293.031 1882.31,-293.031"/>
</g>
<!-- Feedback -->
<g id="node12" class="node"><title>Feedback</title>
<ellipse fill="none" stroke="black" cx="2203" cy="-437" rx="46.2191" ry="18"/>
<text text-anchor="middle" x="2203" y="-433.3" font-family="Times,serif" font-size="14.00">Feedback</text>
</g>
<!-- Info -->
<g id="node14" class="node"><title>Info</title>
<ellipse fill="none" stroke="black" cx="1143" cy="-92" rx="27" ry="18"/>
<text text-anchor="middle" x="1143" y="-88.3" font-family="Times,serif" font-size="14.00">Info</text>
</g>
<!-- Location -->
<g id="node15" class="node"><title>Location</title>
<ellipse fill="none" stroke="black" cx="1949" cy="-437" rx="44.2946" ry="18"/>
<text text-anchor="middle" x="1949" y="-433.3" font-family="Times,serif" font-size="14.00">Location</text>
</g>
<!-- Location&#45;&gt;EventGroup -->
<g id="edge19" class="edge"><title>Location&#45;&gt;EventGroup</title>
<path fill="none" stroke="#831fd8" d="M1924.14,-414.979C1906.79,-400.309 1883.65,-380.746 1865.87,-365.718"/>
<ellipse fill="none" stroke="#831fd8" cx="1927.29" cy="-417.641" rx="4.00002" ry="4.00002"/>
<polygon fill="#831fd8" stroke="#831fd8" points="1865.76,-365.623 1861.03,-355.73 1861.94,-362.394 1858.12,-359.166 1858.12,-359.166 1858.12,-359.166 1861.94,-362.394 1855.22,-362.603 1865.76,-365.623 1865.76,-365.623"/>
</g>
<!-- MapsVersion -->
<g id="node16" class="node"><title>MapsVersion</title>
<ellipse fill="none" stroke="black" cx="2328" cy="-437" rx="60.1672" ry="18"/>
<text text-anchor="middle" x="2328" y="-433.3" font-family="Times,serif" font-size="14.00">MapsVersion</text>
</g>
<!-- Message -->
<g id="node17" class="node"><title>Message</title>
<ellipse fill="none" stroke="black" cx="496" cy="-92" rx="42.3701" ry="18"/>
<text text-anchor="middle" x="496" y="-88.3" font-family="Times,serif" font-size="14.00">Message</text>
</g>
<!-- Networking&#45;&gt;NetworkingInterest -->
<g id="edge20" class="edge"><title>Networking&#45;&gt;NetworkingInterest</title>
<path fill="none" stroke="#60a4b1" d="M190.509,-72.7547C170.11,-62.5552 144.639,-49.8193 123.609,-39.3045"/>
<ellipse fill="none" stroke="#60a4b1" cx="194.282" cy="-74.6408" rx="4.00002" ry="4.00002"/>
<polygon fill="#60a4b1" stroke="#60a4b1" points="123.54,-39.2701 116.608,-30.773 119.068,-37.034 114.596,-34.7979 114.596,-34.7979 114.596,-34.7979 119.068,-37.034 112.583,-38.8228 123.54,-39.2701 123.54,-39.2701"/>
</g>
<!-- Note -->
<g id="node20" class="node"><title>Note</title>
<ellipse fill="none" stroke="black" cx="369" cy="-92" rx="28.3955" ry="18"/>
<text text-anchor="middle" x="369" y="-88.3" font-family="Times,serif" font-size="14.00">Note</text>
</g>
<!-- Note&#45;&gt;AboutPerson -->
<g id="edge21" class="edge"><title>Note&#45;&gt;AboutPerson</title>
<path fill="none" stroke="#eeb012" d="M371.101,-65.7923C371.669,-58.9744 372.284,-51.5875 372.855,-44.7408"/>
<ellipse fill="none" stroke="#eeb012" cx="370.754" cy="-69.9508" rx="4" ry="4"/>
<ellipse fill="#eeb012" stroke="#eeb012" cx="373.214" cy="-40.4269" rx="4" ry="4"/>
</g>
<!-- Note&#45;&gt;AboutEvent -->
<g id="edge22" class="edge"><title>Note&#45;&gt;AboutEvent</title>
<path fill="none" stroke="#dd696c" d="M341.387,-75.4674C321.877,-64.4932 295.611,-49.7189 274.841,-38.0353"/>
<ellipse fill="none" stroke="#dd696c" cx="344.948" cy="-77.4709" rx="4.00002" ry="4.00002"/>
<ellipse fill="#dd696c" stroke="#dd696c" cx="271.229" cy="-36.0039" rx="4.00002" ry="4.00002"/>
</g>
<!-- OrgNotification -->
<g id="node21" class="node"><title>OrgNotification</title>
<ellipse fill="none" stroke="black" cx="1412" cy="-92" rx="70.2909" ry="18"/>
<text text-anchor="middle" x="1412" y="-88.3" font-family="Times,serif" font-size="14.00">OrgNotification</text>
</g>
<!-- PendingContact -->
<g id="node22" class="node"><title>PendingContact</title>
<ellipse fill="none" stroke="black" cx="1571" cy="-92" rx="70.2668" ry="18"/>
<text text-anchor="middle" x="1571" y="-88.3" font-family="Times,serif" font-size="14.00">PendingContact</text>
</g>
<!-- Person&#45;&gt;Message -->
<g id="edge23" class="edge"><title>Person&#45;&gt;Message</title>
<path fill="none" stroke="#bb1f51" d="M1136.36,-178.14C1021.2,-175.616 716.28,-166.91 618,-144 587.21,-136.822 554.24,-122.608 530.347,-111.005"/>
<ellipse fill="none" stroke="#bb1f51" cx="1140.64" cy="-178.232" rx="4" ry="4"/>
<polygon fill="#bb1f51" stroke="#bb1f51" points="530.3,-110.981 523.335,-102.512 525.819,-108.763 521.338,-106.545 521.338,-106.545 521.338,-106.545 525.819,-108.763 519.341,-110.577 530.3,-110.981 530.3,-110.981"/>
</g>
<!-- RemovedNote -->
<g id="node35" class="node"><title>RemovedNote</title>
<ellipse fill="none" stroke="black" cx="621" cy="-92" rx="64.0172" ry="18"/>
<text text-anchor="middle" x="621" y="-88.3" font-family="Times,serif" font-size="14.00">RemovedNote</text>
</g>
<!-- Person&#45;&gt;RemovedNote -->
<g id="edge24" class="edge"><title>Person&#45;&gt;RemovedNote</title>
<path fill="none" stroke="#093936" d="M1136.34,-179.228C1012.02,-179.442 668.607,-177.008 631,-144 624.274,-138.096 621.259,-129.112 620.088,-120.319"/>
<ellipse fill="none" stroke="#093936" cx="1140.55" cy="-179.219" rx="4" ry="4"/>
<polygon fill="#093936" stroke="#093936" points="620.085,-120.262 623.941,-109.997 619.768,-115.272 619.451,-110.282 619.451,-110.282 619.451,-110.282 619.768,-115.272 614.96,-110.568 620.085,-120.262 620.085,-120.262"/>
</g>
<!-- Person&#45;&gt;Note -->
<g id="edge25" class="edge"><title>Person&#45;&gt;Note</title>
<path fill="none" stroke="#3ddb68" d="M1136.49,-179.449C1034.76,-179.827 777.708,-177.099 566,-144 508.005,-134.933 442.306,-116.152 403.334,-104.086"/>
<ellipse fill="none" stroke="#3ddb68" cx="1140.69" cy="-179.429" rx="4" ry="4"/>
<polygon fill="#3ddb68" stroke="#3ddb68" points="403.094,-104.011 394.895,-96.7294 398.322,-102.518 393.551,-101.024 393.551,-101.024 393.551,-101.024 398.322,-102.518 392.206,-105.318 403.094,-104.011 403.094,-104.011"/>
</g>
<!-- Person&#45;&gt;AboutPerson -->
<g id="edge26" class="edge"><title>Person&#45;&gt;AboutPerson</title>
<path fill="none" stroke="#4bd8e4" d="M1136.73,-179.052C969.334,-178.769 381.877,-173.247 331,-110 314.59,-89.5998 332.252,-62.0697 349.845,-42.6492"/>
<ellipse fill="none" stroke="#4bd8e4" cx="1140.85" cy="-179.057" rx="4" ry="4"/>
<polygon fill="#4bd8e4" stroke="#4bd8e4" points="349.872,-42.6214 360.027,-38.4831 353.32,-39.0006 356.768,-35.3798 356.768,-35.3798 356.768,-35.3798 353.32,-39.0006 353.509,-32.2764 349.872,-42.6214 349.872,-42.6214"/>
</g>
<!-- Person&#45;&gt;Person -->
<g id="edge27" class="edge"><title>Person&#45;&gt;Person</title>
<path fill="none" stroke="#be9add" d="M1223.68,-187.577C1230.41,-186.455 1235,-183.929 1235,-180 1235,-176.071 1230.41,-173.545 1223.68,-172.423"/>
<polygon fill="#be9add" stroke="#be9add" points="1223.4,-187.595 1213.13,-183.747 1218.41,-187.916 1213.42,-188.237 1213.42,-188.237 1213.42,-188.237 1218.41,-187.916 1213.71,-192.728 1223.4,-187.595 1223.4,-187.595"/>
<polygon fill="#be9add" stroke="#be9add" points="1223.4,-172.405 1213.71,-167.272 1218.41,-172.084 1213.42,-171.763 1213.42,-171.763 1213.42,-171.763 1218.41,-172.084 1213.13,-176.253 1223.4,-172.405 1223.4,-172.405"/>
<text text-anchor="middle" x="1284.5" y="-176.3" font-family="Times,serif" font-size="14.00">notes_on_people</text>
</g>
<!-- Registry -->
<g id="node26" class="node"><title>Registry</title>
<ellipse fill="none" stroke="black" cx="746" cy="-92" rx="42.3701" ry="18"/>
<text text-anchor="middle" x="746" y="-88.3" font-family="Times,serif" font-size="14.00">Registry</text>
</g>
<!-- Person&#45;&gt;Registry -->
<g id="edge28" class="edge"><title>Person&#45;&gt;Registry</title>
<path fill="none" stroke="#1c28f5" d="M1136.57,-179.532C1012.95,-180.55 671.792,-180.04 638,-144 633.136,-138.812 633.811,-133.746 638,-128 653.4,-106.874 669.131,-118.062 694,-110 697.854,-108.751 701.867,-107.446 705.88,-106.138"/>
<ellipse fill="none" stroke="#1c28f5" cx="1140.74" cy="-179.495" rx="4" ry="4"/>
<ellipse fill="#1c28f5" stroke="#1c28f5" cx="709.751" cy="-104.876" rx="4.00001" ry="4.00001"/>
</g>
<!-- TradedContact -->
<g id="node38" class="node"><title>TradedContact</title>
<ellipse fill="none" stroke="black" cx="872" cy="-92" rx="65.4659" ry="18"/>
<text text-anchor="middle" x="872" y="-88.3" font-family="Times,serif" font-size="14.00">TradedContact</text>
</g>
<!-- Person&#45;&gt;TradedContact -->
<g id="edge29" class="edge"><title>Person&#45;&gt;TradedContact</title>
<path fill="none" stroke="#e89f7b" d="M1136.77,-178.108C1042.93,-175.757 830.698,-167.835 809,-144 798.21,-132.147 809.494,-120.745 825.345,-111.739"/>
<ellipse fill="none" stroke="#e89f7b" cx="1140.93" cy="-178.209" rx="4" ry="4"/>
<polygon fill="#e89f7b" stroke="#e89f7b" points="825.63,-111.592 836.579,-110.991 830.07,-109.294 834.51,-106.995 834.51,-106.995 834.51,-106.995 830.07,-109.294 832.442,-102.999 825.63,-111.592 825.63,-111.592"/>
<text text-anchor="middle" x="881.5" y="-132.3" font-family="Times,serif" font-size="14.00">received_traded_contacts</text>
</g>
<!-- Person&#45;&gt;TradedContact -->
<g id="edge30" class="edge"><title>Person&#45;&gt;TradedContact</title>
<path fill="none" stroke="#b82c50" d="M1136.49,-179.264C1019.76,-179.493 711.715,-176.94 681,-144 622.187,-80.9262 527.197,-161.447 797,-110 802.629,-108.927 808.479,-107.735 814.317,-106.496"/>
<ellipse fill="none" stroke="#b82c50" cx="1140.55" cy="-179.253" rx="4" ry="4"/>
<polygon fill="#b82c50" stroke="#b82c50" points="814.318,-106.496 825.045,-108.774 819.204,-105.436 824.091,-104.376 824.091,-104.376 824.091,-104.376 819.204,-105.436 823.137,-99.9786 814.318,-106.496 814.318,-106.496"/>
<text text-anchor="middle" x="741" y="-132.3" font-family="Times,serif" font-size="14.00">sent_traded_contacts</text>
</g>
<!-- Person&#45;&gt;Info -->
<g id="edge31" class="edge"><title>Person&#45;&gt;Info</title>
<path fill="none" stroke="#375b53" d="M1222.46,-171.118C1254.1,-163.253 1289.53,-149.25 1272,-128 1245.21,-95.525 1219.01,-123.091 1179,-110 1177.08,-109.371 1175.13,-108.664 1173.18,-107.905"/>
<ellipse fill="none" stroke="#375b53" cx="1218.42" cy="-172.069" rx="4.00001" ry="4.00001"/>
<polygon fill="#375b53" stroke="#375b53" points="1172.77,-107.733 1165.35,-99.6592 1168.18,-105.764 1163.58,-103.796 1163.58,-103.796 1163.58,-103.796 1168.18,-105.764 1161.81,-107.932 1172.77,-107.733 1172.77,-107.733"/>
</g>
<!-- Person&#45;&gt;Speaker -->
<g id="edge32" class="edge"><title>Person&#45;&gt;Speaker</title>
<path fill="none" stroke="#ca6bb7" d="M1225.39,-178.44C1334.29,-176.677 1612.28,-169.719 1701,-144 1724.08,-137.309 1747.85,-124.346 1765.72,-113.164"/>
<ellipse fill="none" stroke="#ca6bb7" cx="1221.23" cy="-178.505" rx="4" ry="4"/>
<polygon fill="#ca6bb7" stroke="#ca6bb7" points="1766.07,-112.933 1776.92,-111.306 1770.28,-110.228 1774.48,-107.522 1774.48,-107.522 1774.48,-107.522 1770.28,-110.228 1772.05,-103.738 1766.07,-112.933 1766.07,-112.933"/>
</g>
<!-- Person&#45;&gt;Event -->
<g id="edge33" class="edge"><title>Person&#45;&gt;Event</title>
<path fill="none" stroke="#003669" d="M1226.26,-186.281C1277.84,-192.954 1364.18,-204.909 1438,-216 1535.62,-230.666 1649.75,-249.186 1709,-259.388"/>
<polygon fill="#003669" stroke="#003669" points="1226.02,-186.251 1216.68,-180.516 1221.07,-185.615 1216.11,-184.979 1216.11,-184.979 1216.11,-184.979 1221.07,-185.615 1215.53,-189.443 1226.02,-186.251 1226.02,-186.251"/>
<polygon fill="#003669" stroke="#003669" points="1709.21,-259.424 1718.3,-265.567 1714.14,-260.279 1719.07,-261.133 1719.07,-261.133 1719.07,-261.133 1714.14,-260.279 1719.83,-256.699 1709.21,-259.424 1709.21,-259.424"/>
</g>
<!-- Person&#45;&gt;Author -->
<g id="edge34" class="edge"><title>Person&#45;&gt;Author</title>
<path fill="none" stroke="#3ec0e6" d="M1225.5,-178.713C1341.51,-177.575 1646.62,-171.93 1682,-144 1689.22,-138.297 1693.25,-129.357 1695.48,-120.545"/>
<ellipse fill="none" stroke="#3ec0e6" cx="1221.48" cy="-178.751" rx="4" ry="4"/>
<polygon fill="#3ec0e6" stroke="#3ec0e6" points="1695.52,-120.293 1701.77,-111.279 1696.43,-115.377 1697.34,-110.46 1697.34,-110.46 1697.34,-110.46 1696.43,-115.377 1692.92,-109.641 1695.52,-120.293 1695.52,-120.293"/>
</g>
<!-- Person&#45;&gt;AtendingEvent -->
<g id="edge35" class="edge"><title>Person&#45;&gt;AtendingEvent</title>
<path fill="none" stroke="#03cc49" d="M1225.14,-176.6C1248.14,-172.834 1274.43,-164.035 1289,-144 1295.27,-135.38 1291.44,-125.617 1284.52,-116.958"/>
<ellipse fill="none" stroke="#03cc49" cx="1221.13" cy="-177.17" rx="4.00001" ry="4.00001"/>
<polygon fill="#03cc49" stroke="#03cc49" points="1284.29,-116.711 1280.79,-106.32 1280.89,-113.046 1277.49,-109.38 1277.49,-109.38 1277.49,-109.38 1280.89,-113.046 1274.19,-112.441 1284.29,-116.711 1284.29,-116.711"/>
</g>
<!-- Person&#45;&gt;Event -->
<g id="edge36" class="edge"><title>Person&#45;&gt;Event</title>
<path fill="none" stroke="#6a0b84" d="M1216.92,-196.312C1246.25,-208.113 1289.06,-223.763 1328,-232 1464.21,-260.81 1629.89,-266.139 1706.45,-266.968"/>
<polygon fill="#6a0b84" stroke="#6a0b84" points="1216.78,-196.253 1209.22,-188.308 1212.15,-194.363 1207.52,-192.474 1207.52,-192.474 1207.52,-192.474 1212.15,-194.363 1205.82,-196.64 1216.78,-196.253 1216.78,-196.253"/>
<polygon fill="#6a0b84" stroke="#6a0b84" points="1706.65,-266.97 1716.61,-271.557 1711.65,-267.014 1716.65,-267.057 1716.65,-267.057 1716.65,-267.057 1711.65,-267.014 1716.69,-262.558 1706.65,-266.97 1706.65,-266.97"/>
<text text-anchor="middle" x="1376.5" y="-220.3" font-family="Times,serif" font-size="14.00">attending_events</text>
</g>
<!-- Person&#45;&gt;OrgNotification -->
<g id="edge37" class="edge"><title>Person&#45;&gt;OrgNotification</title>
<path fill="none" stroke="#09b4e2" d="M1221.11,-169.522C1245.66,-163.268 1277.54,-154.335 1305,-144 1328.44,-135.177 1353.78,-123.215 1373.92,-113.092"/>
<ellipse fill="none" stroke="#09b4e2" cx="1216.96" cy="-170.564" rx="4.00001" ry="4.00001"/>
<polygon fill="#09b4e2" stroke="#09b4e2" points="1374.15,-112.975 1385.1,-112.453 1378.61,-110.708 1383.06,-108.442 1383.06,-108.442 1383.06,-108.442 1378.61,-110.708 1381.02,-104.43 1374.15,-112.975 1374.15,-112.975"/>
</g>
<!-- Person&#45;&gt;Networking -->
<g id="edge38" class="edge"><title>Person&#45;&gt;Networking</title>
<path fill="none" stroke="#3cfe8d" d="M1136.72,-178.194C951.062,-174.715 244.128,-160.406 228,-144 221.842,-137.736 220.306,-128.67 220.734,-119.913"/>
<ellipse fill="none" stroke="#3cfe8d" cx="1140.91" cy="-178.273" rx="4" ry="4"/>
<polygon fill="#3cfe8d" stroke="#3cfe8d" points="220.738,-119.885 226.446,-110.522 221.359,-114.924 221.981,-109.963 221.981,-109.963 221.981,-109.963 221.359,-114.924 217.516,-109.404 220.738,-119.885 220.738,-119.885"/>
<text text-anchor="middle" x="278" y="-132.3" font-family="Times,serif" font-size="14.00">read_networking</text>
</g>
<!-- Person&#45;&gt;Networking -->
<g id="edge39" class="edge"><title>Person&#45;&gt;Networking</title>
<path fill="none" stroke="#106a26" d="M1136.5,-178.341C975.802,-175.794 431.02,-165.635 356,-144 342.228,-140.028 341.05,-133.928 328,-128 311.616,-120.558 293.153,-113.732 276.536,-108.123"/>
<ellipse fill="none" stroke="#106a26" cx="1140.75" cy="-178.408" rx="4" ry="4"/>
<polygon fill="#106a26" stroke="#106a26" points="276.489,-108.108 268.409,-100.694 271.742,-106.537 266.996,-104.966 266.996,-104.966 266.996,-104.966 271.742,-106.537 265.582,-109.238 276.489,-108.108 276.489,-108.108"/>
</g>
<!-- Person&#45;&gt;PersonInterest -->
<g id="edge40" class="edge"><title>Person&#45;&gt;PersonInterest</title>
<path fill="none" stroke="#6c20f4" d="M1225.64,-179.265C1320,-179.15 1546.38,-175.296 1733,-144 1780.05,-136.109 1832.35,-121.088 1869.31,-109.382"/>
<ellipse fill="none" stroke="#6c20f4" cx="1221.46" cy="-179.266" rx="4" ry="4"/>
<polygon fill="#6c20f4" stroke="#6c20f4" points="1869.31,-109.382 1880.2,-110.617 1874.07,-107.857 1878.83,-106.331 1878.83,-106.331 1878.83,-106.331 1874.07,-107.857 1877.46,-102.046 1869.31,-109.382 1869.31,-109.382"/>
</g>
<!-- Person&#45;&gt;PendingContact -->
<g id="edge41" class="edge"><title>Person&#45;&gt;PendingContact</title>
<path fill="none" stroke="#f343d2" d="M1225.23,-178.552C1306.4,-177.077 1475.55,-170.78 1527,-144 1538.23,-138.154 1547.83,-128.129 1555.18,-118.507"/>
<ellipse fill="none" stroke="#f343d2" cx="1221.19" cy="-178.62" rx="4" ry="4"/>
<polygon fill="#f343d2" stroke="#f343d2" points="1555.24,-118.42 1564.7,-112.876 1558.13,-114.345 1561.03,-110.269 1561.03,-110.269 1561.03,-110.269 1558.13,-114.345 1557.36,-107.662 1555.24,-118.42 1555.24,-118.42"/>
<text text-anchor="middle" x="1612" y="-132.3" font-family="Times,serif" font-size="14.00">sent_pending_requests</text>
</g>
<!-- Person&#45;&gt;PendingContact -->
<g id="edge42" class="edge"><title>Person&#45;&gt;PendingContact</title>
<path fill="none" stroke="#775f1f" d="M1223.86,-173.009C1256.01,-167.671 1300.7,-158.433 1338,-144 1351.37,-138.827 1352.45,-132.659 1366,-128 1419.08,-109.755 1435.74,-119.839 1491,-110 1497.15,-108.906 1503.54,-107.686 1509.92,-106.416"/>
<ellipse fill="none" stroke="#775f1f" cx="1219.5" cy="-173.711" rx="4.00001" ry="4.00001"/>
<polygon fill="#775f1f" stroke="#775f1f" points="1510.09,-106.382 1520.78,-108.799 1514.99,-105.385 1519.89,-104.389 1519.89,-104.389 1519.89,-104.389 1514.99,-105.385 1518.99,-99.9796 1510.09,-106.382 1510.09,-106.382"/>
<text text-anchor="middle" x="1444.5" y="-132.3" font-family="Times,serif" font-size="14.00">received_pending_requests</text>
</g>
<!-- RejectedContact -->
<g id="node27" class="node"><title>RejectedContact</title>
<ellipse fill="none" stroke="black" cx="1027" cy="-92" rx="71.2405" ry="18"/>
<text text-anchor="middle" x="1027" y="-88.3" font-family="Times,serif" font-size="14.00">RejectedContact</text>
</g>
<!-- Person&#45;&gt;RejectedContact -->
<g id="edge43" class="edge"><title>Person&#45;&gt;RejectedContact</title>
<path fill="none" stroke="#b3528c" d="M1156.84,-158.905C1151,-154.032 1144.77,-148.834 1139,-144 1130.54,-136.911 1129.53,-133.58 1120,-128 1107.9,-120.913 1094.11,-114.798 1080.92,-109.753"/>
<ellipse fill="none" stroke="#b3528c" cx="1159.92" cy="-161.472" rx="4.00002" ry="4.00002"/>
<polygon fill="#b3528c" stroke="#b3528c" points="1080.84,-109.723 1073.01,-102.046 1076.15,-107.996 1071.46,-106.269 1071.46,-106.269 1071.46,-106.269 1076.15,-107.996 1069.91,-110.492 1080.84,-109.723 1080.84,-109.723"/>
<text text-anchor="middle" x="1203.5" y="-132.3" font-family="Times,serif" font-size="14.00">sent_rejected_requests</text>
</g>
<!-- Person&#45;&gt;RejectedContact -->
<g id="edge44" class="edge"><title>Person&#45;&gt;RejectedContact</title>
<path fill="none" stroke="#64b585" d="M1136.5,-178.431C1079.09,-176.644 983.969,-169.758 962,-144 951.633,-131.845 962.59,-120.613 978.278,-111.802"/>
<ellipse fill="none" stroke="#64b585" cx="1140.69" cy="-178.547" rx="4" ry="4"/>
<polygon fill="#64b585" stroke="#64b585" points="978.466,-111.706 989.419,-111.175 982.92,-109.436 987.375,-107.165 987.375,-107.165 987.375,-107.165 982.92,-109.436 985.332,-103.156 978.466,-111.706 978.466,-111.706"/>
<text text-anchor="middle" x="1039" y="-132.3" font-family="Times,serif" font-size="14.00">received_rejected_requests</text>
</g>
<!-- ProgramVersion -->
<g id="node25" class="node"><title>ProgramVersion</title>
<ellipse fill="none" stroke="black" cx="2480" cy="-437" rx="73.1654" ry="18"/>
<text text-anchor="middle" x="2480" y="-433.3" font-family="Times,serif" font-size="14.00">ProgramVersion</text>
</g>
<!-- RemovedAreas -->
<g id="node28" class="node"><title>RemovedAreas</title>
<ellipse fill="none" stroke="black" cx="2639" cy="-437" rx="67.3907" ry="18"/>
<text text-anchor="middle" x="2639" y="-433.3" font-family="Times,serif" font-size="14.00">RemovedAreas</text>
</g>
<!-- RemovedAttendingEvent -->
<g id="node29" class="node"><title>RemovedAttendingEvent</title>
<ellipse fill="none" stroke="black" cx="2830" cy="-437" rx="104.937" ry="18"/>
<text text-anchor="middle" x="2830" y="-433.3" font-family="Times,serif" font-size="14.00">RemovedAttendingEvent</text>
</g>
<!-- RemovedAuthors -->
<g id="node30" class="node"><title>RemovedAuthors</title>
<ellipse fill="none" stroke="black" cx="3031" cy="-437" rx="77.0154" ry="18"/>
<text text-anchor="middle" x="3031" y="-433.3" font-family="Times,serif" font-size="14.00">RemovedAuthors</text>
</g>
<!-- RemovedEvent -->
<g id="node31" class="node"><title>RemovedEvent</title>
<ellipse fill="none" stroke="black" cx="3194" cy="-437" rx="67.3907" ry="18"/>
<text text-anchor="middle" x="3194" y="-433.3" font-family="Times,serif" font-size="14.00">RemovedEvent</text>
</g>
<!-- RemovedInfo -->
<g id="node32" class="node"><title>RemovedInfo</title>
<ellipse fill="none" stroke="black" cx="3341" cy="-437" rx="61.6163" ry="18"/>
<text text-anchor="middle" x="3341" y="-433.3" font-family="Times,serif" font-size="14.00">RemovedInfo</text>
</g>
<!-- RemovedLocation -->
<g id="node33" class="node"><title>RemovedLocation</title>
<ellipse fill="none" stroke="black" cx="3500" cy="-437" rx="78.9404" ry="18"/>
<text text-anchor="middle" x="3500" y="-433.3" font-family="Times,serif" font-size="14.00">RemovedLocation</text>
</g>
<!-- RemovedNetworkings -->
<g id="node34" class="node"><title>RemovedNetworkings</title>
<ellipse fill="none" stroke="black" cx="3693" cy="-437" rx="95.3122" ry="18"/>
<text text-anchor="middle" x="3693" y="-433.3" font-family="Times,serif" font-size="14.00">RemovedNetworkings</text>
</g>
<!-- RemovedNotification -->
<g id="node36" class="node"><title>RemovedNotification</title>
<ellipse fill="none" stroke="black" cx="3898" cy="-437" rx="90.4879" ry="18"/>
<text text-anchor="middle" x="3898" y="-433.3" font-family="Times,serif" font-size="14.00">RemovedNotification</text>
</g>
</g>
</svg>
